<svg xmlns="http://www.w3.org/2000/svg" viewBox="0 0 1000 1000" enable-background="new 0 0 1000 1000"><path d="m278.4 986.2c3.5-3.8 3.8-10-.1-13.5l-76.2-78.2c-3.8-3.6-9.1-3.4-13.4.1l-77.4 76.4c-3.6 3.9-3.8 10-.8 13.1l167.9 2.1"/><path d="m191.2 744.4c2.6 4.1 8.7 4.3 12.2.5l78.3-76.1c3.5-3.9 3.7-10-.1-13.5l-76.2-78.3c-3.9-3.5-9.1-3.4-13.5.1l-77.3 76.5c-3.6 3.8-3.8 10-.8 13.2l77.4 77.6"/><path d="m199.1 100.8c3.8 3.5 9.9 3.7 13.5-.1l77.3-76.5c4.4-3.5 4.3-8.7.5-12.2l-167.9-2c-3.2 2.9-3.4 9.1.4 12.6l76.2 78.2"/><path d="m632.8 990c-143.1-2-311.8-4.3-311.8-4.3-3.9-3.5-3.4-7.4 0-11.3l132.8-130.2c3.5-3.8 9.6-3.6 12.5-.5l90.7 92c7.4 8 18.7 8.1 25.4 1.2l99.9-98c6.7-6.8 7.1-19.1.3-25.7l-98-99.9c-6.8-6.7-19-7.1-25.7-.4l-88.5 86.8c-3.5 3.9-9.6 3.7-13.2-.7l-130.1-132.8c-3.8-3.5-3.6-9.6-.4-12.6l132.3-129.2c4.4-3.5 9.6-3.6 13.5-.1l86.8 88.5c7.4 7.9 18.7 8 25.7.3l99.6-97c7.9-7.4 8-18.7.7-26.6l-97.5-98.7c-7.4-8-18.7-8.1-25.7-.4l-92 90.6c-4 2.6-9.3 2.7-13.1-.8l-128.7-131.2c-2.9-3.2-2.7-9.3.5-12.2l136.2-134.1c3.2-2.9 9.3-2.7 13.2.8l87.7 88.8c6.5 7.7 17.8 7.8 25.8.4l99.6-97.1c7-7.7 7.1-19-.2-27l-97.6-98.6c-7.4-8-18.7-8-25.7-.4l-92 90.7c-3.2 3-9.4 2.7-13.2-.8l-130.2-132.8c-2.9-3.2-3.3-10.5.3-14.4 0 0 155.9.6 299.6 3.8 135.6 22 256.2 116.9 255.4 259.4-1.2 99.9-59 184.7-142.1 227 87.9 41.3 147.7 130 146 233.8-1.4 141.3-115.8 255.7-258.8 253.7"/><path d="m193.5 421.5c3.8 3.5 9.1 3.4 13.5-.1l77.4-76.5c3.5-3.8 3.4-9 .5-12.3l-77-78.6c-3-3.2-9-3.4-12.6.5l-78.3 76.1c-3.2 2.9-3.4 9 .5 12.6l76 78.3"/></svg>