<svg xmlns="http://www.w3.org/2000/svg" width="2000" height="1763.95" viewBox="0 0 2000 1763.95"><g fill="#00b3c4"><path d="M665.37 111.25A111.26 111.26 0 1 1 554.11 0 111.25 111.25 0 0 1 665.37 111.25"/><path d="M1109.91,111.25A111.25,111.25,0,1,1,998.66,0h.08A111.25,111.25,0,0,1,1110,111.25"/><path d="M888.4 495.35A111.18 111.18 0 1 1 777.23 384.1 111.18 111.18 0 0 1 888.4 495.35"/><path d="M446,495.35a111.18,111.18,0,1,1,0-.15v.15"/></g><path d="M1332.57 495.35A111.18 111.18 0 1 1 1221.39 384.1a111.18 111.18 0 0 1 111.18 111.25" fill="#dcdcdc"/><g fill="#00b3c4"><path d="M1777.57 495.35A111.18 111.18 0 1 1 1666.4 384.1a111.18 111.18 0 0 1 111.17 111.25"/><path d="M1554.08 111.25A111.18 111.18 0 1 1 1442.9 0a111.18 111.18 0 0 1 111.18 111.25"/></g><path d="M665.37,880.37A111.26,111.26,0,1,1,554,769.2h.07A111.26,111.26,0,0,1,665.37,880.37" fill="#dcdcdc"/><g fill="#00b3c4"><path d="M222.5,880.37A111.25,111.25,0,1,1,111.17,769.2h.08A111.25,111.25,0,0,1,222.5,880.37"/><path d="M1109.91,880.37A111.25,111.25,0,1,1,998.58,769.2h.08a111.25,111.25,0,0,1,111.25,111.17"/><path d="M888.4,1264.55a111.18,111.18,0,1,1-111.25-111.18A111.17,111.17,0,0,1,888.4,1264.55"/><path d="M446 1264.55a111.18 111.18 0 1 1 -111.17 -111.18A111.18 111.18 0 0 1 446 1264.55"/></g><path d="M1332.57 1264.55a111.18 111.18 0 1 1 -111.18 -111.18 111.25 111.25 0 0 1 111.18 111.18" fill="#dcdcdc"/><g fill="#00b3c4"><path d="M1777.57 1264.55a111.18 111.18 0 1 1 -111.17 -111.18 111.25 111.25 0 0 1 111.17 111.18"/><path d="M1554.08 880.37A111.18 111.18 0 1 1 1442.82 769.2a111.18 111.18 0 0 1 111.26 111.17"/><path d="M2000,880.37A111.25,111.25,0,1,1,1888.67,769.2h.08A111.25,111.25,0,0,1,2000,880.37"/><path d="M665.37 1652.7a111.26 111.26 0 1 1 -111.26 -111.25A111.25 111.25 0 0 1 665.37 1652.7"/><path d="M1109.91,1652.7a111.25,111.25,0,1,1-111.25-111.25h0a111.18,111.18,0,0,1,111.25,111.1v.15"/><path d="M1554.08,1652.7a111.18,111.18,0,1,1-111.26-111.25,111.18,111.18,0,0,1,111.26,111.25"/></g></svg>